/* XPM */
static char *dc4be5c2d75c4851f2ffb385a9d56387JACaYXo3VpyPyYrn[] = {
/* columns rows colors chars-per-pixel */
"64 64 2 1 ",
"  c #1E5B1E",
". c #1D741D",
/* pixels */
"................................................................",
"................................................................",
"................................................................",
"................................................................",
"................................................................",
"...........  ....................  .............................",
".......... .. ................... . ............................",
".......... ... ................. ... ...........................",
".......... .... ................ ... .......... ................",
".......... .....   ............. .... ......... ................",
"......... ........  ........... ...... ........  ...............",
"......... ..................... .......  .......  ..............",
"........  ...............................  .....   .............",
"........................................... .... ..     ........",
"................................................ ...............",
"................................................ ...............",
"............. .................................. ...............",
"............  ..................................................",
"............ . .................................................",
"............ . ................ ............... ................",
"............ . ...............  ...............  ...............",
"........... ... ..............  ................ ...............",
"........... ... ............. . ................ ...............",
"........... .... ............ .. .............. . ..............",
"........... .... ........... ... .............. . ..............",
".......... ...... .......... .... ............ ... .............",
".......... ......  ........ ...... .......... .... .............",
".......... ....... ........ ......   .......  ..... ............",
"......... .........  .....  ........   ..... ....... ...........",
"......... ................ ................ ........  ..........",
"........  ............................................ .........",
".......  ..............................................  .......",
"................................................................",
"................................................................",
"................................................................",
"................................................................",
"................................................................",
"................................................................",
"................................................................",
"................................. ..............................",
"...................  ............  ............... .............",
"...................  ............  ..............   ............",
"................... . ........... . ............  . ............",
".................. .. ........... . ...........  ... ...........",
".................. ... ......... ... .......... .... ...........",
".................. .... ........ ... ......... ..... ...........",
"................. ..................  ....... ...... ...........",
"............................................ ........ ..........",
"..................................................... ..........",
".....................................................  .........",
"............................. ........................ .........",
".............. .............  .................... .... ........",
".............. ............. . ..................   ............",
".............  ............. .. ................. . ............",
"............. . ............ ... ............... ... ...........",
"............ .. ........... .....  ............ .... ...........",
"........... .... .......... ......    ............... ..........",
".......... ...... .......  .....................................",
".........  .......  ............................................",
".......   ......................................................",
"................................................................",
"................................................................",
"................................................................",
"................................................................"
};
